<?xml version="1.0" encoding="UTF-8"?>
<svg data-bbox="0 0 213 209" xmlns:xlink="http://www.w3.org/1999/xlink" height="209pt" width="284" viewBox="0 0 213 209" xmlns="http://www.w3.org/2000/svg" data-type="ugc">
    <g>
        <defs>
            <path id="4039e9e4-d596-493a-8742-d5bc359fcad0" d="M0 0h213v209H0V0Zm92.51 1.77c-18.73 2.54-36.7 10.47-51.3 22.45C27.74 35.16 17.13 49.65 10.78 65.8c-6.83 17.25-8.76 36.43-5.54 54.71 5.99 34.38 31.13 64.85 63.46 77.81 18.31 7.48 38.73 9.37 58.14 5.64 20.35-3.99 39.38-14.41 53.6-29.53 22.62-23.6 32.15-57.88 26.1-89.89-3.93-21.44-14.85-41.44-30.74-56.34C153.83 7.33 122.48-2.48 92.51 1.77Z"/>
            <path id="7443f809-c980-4934-a046-6baf42944812" d="M92.51 1.77c29.97-4.25 61.32 5.56 83.29 26.43 15.89 14.9 26.81 34.9 30.74 56.34 6.05 32.01-3.48 66.29-26.1 89.89-14.22 15.12-33.25 25.54-53.6 29.53-19.41 3.73-39.83 1.84-58.14-5.64-32.33-12.96-57.47-43.43-63.46-77.81-3.22-18.28-1.29-37.46 5.54-54.71 6.35-16.15 16.96-30.64 30.43-41.58 14.6-11.98 32.57-19.91 51.3-22.45Zm4.01 11.09c-30.21 3.08-57.74 22.13-71.51 49.15-8.93 17.39-12.21 37.69-8.9 56.98 2.29 13.9 7.99 27.22 16.35 38.54 11.15 15.01 26.99 26.45 44.79 32.2 19.01 6.34 40.02 6.2 58.97-.32 14.8-5.15 28.29-13.72 38.57-25.62 19.47-22.04 26.57-53.42 19.27-81.83-4.33-17.44-14.17-33.52-27.21-45.81-18.62-17.51-44.94-26.17-70.33-23.29Z"/>
            <path id="d93fbd17-8f82-4f25-b94e-cafe5eb37af8" d="M96.52 12.86c25.39-2.88 51.71 5.78 70.33 23.29 13.04 12.29 22.88 28.37 27.21 45.81 7.3 28.41.2 59.79-19.27 81.83-10.28 11.9-23.77 20.47-38.57 25.62-18.95 6.52-39.96 6.66-58.97.32-17.8-5.75-33.64-17.19-44.79-32.2-8.36-11.32-14.06-24.64-16.35-38.54-3.31-19.29-.03-39.59 8.9-56.98 13.77-27.02 41.3-46.07 71.51-49.15Zm60.89 118.58c2.92 3.34 5.83 6.68 8.79 9.98 5.27-7.94 8.75-17.84 8.59-27.42-.05-7.38-2.77-14.71-7.28-20.52C161 85.99 150.95 81.59 141 82.35c-11.59.82-22.3 5.71-32.23 11.44-9.25 4.84-18.44 12.2-28.21 15.72-4.74 1.23-10.69 2.91-15.45 1.26-5.34-1.89-8.98-6.39-11.75-11.13-2.78-5.44-1.92-11.7.05-17.25 2.72-7.19 7.57-13.6 13.63-18.32 4.63-3.62 9.66-7.67 15.09-9.95 7.38-2.86 14.87-4.91 22.87-4.6 2.57-.25 6.27.83 7.97-1.57 1.75-2.37 1.55-5.89 1.19-8.66-2.61-1.12-5.3-2.84-8.14-2.98-4.53-.47-8.6.62-13.01 1.31-5.21.69-10.36 2.19-15.21 4.18-11.45 5.86-21.82 13.02-29.51 23.51-3.72 5.15-7.1 10.96-8.74 17.13-1.5 7.75-1.27 16.34 2.45 23.46 3.71 6.87 9.08 12.68 16.45 15.63 8 3.03 17.11 3.7 25-.09 17.39-8.02 34.88-21.73 53.51-26.71 4.83-1.46 8.98.16 13.46 1.87 6.2 2.46 10.37 9.01 11.39 15.42.95 6.38-2.24 13.51-4.4 19.42Zm-46.98 24.01c-2.59.81-5.13 2.22-5.91 5.01-.76 2.99-.36 6.75 2.49 8.53 4.08 2.53 9.47.89 11.87-3.12 1.22-2.55.77-5.45-1.33-7.38-1.81-1.67-4.48-3.95-7.12-3.04Z"/>
            <path id="572b5878-ffea-4136-9e4d-bab7c1527933" d="M106.02 36.31c2.84.14 5.53 1.86 8.14 2.98.36 2.77.56 6.29-1.19 8.66-1.7 2.4-5.4 1.32-7.97 1.57-8-.31-15.49 1.74-22.87 4.6-5.43 2.28-10.46 6.33-15.09 9.95-6.06 4.72-10.91 11.13-13.63 18.32-1.97 5.55-2.83 11.81-.05 17.25 2.77 4.74 6.41 9.24 11.75 11.13 4.76 1.65 10.71-.03 15.45-1.26 9.77-3.52 18.96-10.88 28.21-15.72 9.93-5.73 20.64-10.62 32.23-11.44 9.95-.76 20 3.64 26.51 11.13 4.51 5.81 7.23 13.14 7.28 20.52.16 9.58-3.32 19.48-8.59 27.42-2.96-3.3-5.87-6.64-8.79-9.98 2.16-5.91 5.35-13.04 4.4-19.42-1.02-6.41-5.19-12.96-11.39-15.42-4.48-1.71-8.63-3.33-13.46-1.87-18.63 4.98-36.12 18.69-53.51 26.71-7.89 3.79-17 3.12-25 .09-7.37-2.95-12.74-8.76-16.45-15.63-3.72-7.12-3.95-15.71-2.45-23.46 1.64-6.17 5.02-11.98 8.74-17.13C55.98 54.82 66.35 47.66 77.8 41.8c4.85-1.99 10-3.49 15.21-4.18 4.41-.69 8.48-1.78 13.01-1.31Z"/>
            <path id="164f34cc-4ec0-41c8-b708-96b7f91814fa" d="M110.43 155.45c2.64-.91 5.31 1.37 7.12 3.04 2.1 1.93 2.55 4.83 1.33 7.38-2.4 4.01-7.79 5.65-11.87 3.12-2.85-1.78-3.25-5.54-2.49-8.53.78-2.79 3.32-4.2 5.91-5.01Z"/>
        </defs>
        <g stroke-width="10pt">
            <use xlink:href="#4039e9e4-d596-493a-8742-d5bc359fcad0" stroke="#ffffff"/>
            <use xlink:href="#7443f809-c980-4934-a046-6baf42944812" stroke="#f7931e"/>
            <use xlink:href="#d93fbd17-8f82-4f25-b94e-cafe5eb37af8" stroke="#ffffff"/>
            <use xlink:href="#572b5878-ffea-4136-9e4d-bab7c1527933" stroke="#f7931e"/>
            <use xlink:href="#164f34cc-4ec0-41c8-b708-96b7f91814fa" stroke="#f7931e"/>
        </g>
        <use xlink:href="#4039e9e4-d596-493a-8742-d5bc359fcad0" fill="#ffffff"/>
        <use xlink:href="#7443f809-c980-4934-a046-6baf42944812" fill="#f7931e"/>
        <use xlink:href="#d93fbd17-8f82-4f25-b94e-cafe5eb37af8" fill="#ffffff"/>
        <use xlink:href="#572b5878-ffea-4136-9e4d-bab7c1527933" fill="#f7931e"/>
        <use xlink:href="#164f34cc-4ec0-41c8-b708-96b7f91814fa" fill="#f7931e"/>
    </g>
</svg>
